<?xml version="1.0" encoding="utf-8" ?>
<svg xmlns="http://www.w3.org/2000/svg" xmlns:xlink="http://www.w3.org/1999/xlink" width="1024" height="1024">
	<path fill="#ffffffbb" transform="scale(2 2)" d="M469.334 73.1894L469.334 70.9904C471.067 71.3352 472.725 71.7454 474.409 72.2789C472.948 73.0647 470.963 72.8021 469.334 73.1894Z"/>
	<path fill="#ffffffbb" transform="scale(2 2)" d="M62.9944 313.925C64.5533 314.75 105.909 357.479 111.398 363.539C126.361 346.937 143.845 331.386 158.16 314.621C160.586 317.489 163.595 320.038 166.269 322.688L182.638 338.836C190.988 346.974 198.855 355.595 207.392 363.539C216.833 353.645 226.502 343.823 236.212 334.185C242.574 327.87 249.7 321.707 255.215 314.621C259.28 317.695 262.782 321.794 266.342 325.43L281.849 341.017C289.395 348.543 297.888 355.567 304.922 363.539C309.977 356.539 318.999 349.329 325.309 343.045L342.685 325.435C346.35 321.748 350.059 317.613 354.325 314.621C356.288 316.3 357.988 318.288 359.787 320.139C373.768 334.53 388.798 347.914 402.214 362.841C407.26 358.773 411.678 353.56 416.168 348.895L435.35 329.123C439.559 324.701 445.534 317.457 450.688 314.621C455.355 318.5 459.537 323.404 463.82 327.727L487.833 351.752C491.741 355.81 495.849 359.779 500.045 363.539C497.823 367.968 494.539 372.11 491.875 376.311C488.06 382.329 471.961 409.163 470.851 415.141C470.102 419.174 470.349 423.579 470.353 427.669L470.366 443.151C463.875 443.478 457.223 443.156 450.709 443.154L369.035 443.153C353.796 443.155 340.279 443.647 325.225 440.474C304.804 436.169 268.804 419.742 256.724 401.236C254.853 402.819 253.169 404.601 251.436 406.332C222.332 435.403 188.631 443.157 149.561 443.155L43.144 443.151L43.1618 423.966C43.1504 411.843 44.5249 413.322 37.8823 403.439C28.9022 390.079 21.4856 376.095 15.1088 361.332C20.4846 355.359 26.6309 349.978 32.276 344.248L52.3032 324.084C55.704 320.685 59.0098 316.621 62.9944 313.925Z"/>
	<path fill="#ffffffbb" transform="scale(2 2)" d="M13.2387 77.1792C16.4355 75.9094 36.8003 70.9421 39.5849 70.9565C41.2335 72.1902 44.2816 87.6181 45.0348 90.5879L61.9416 159.793C63.2212 165.269 64.9938 171.028 65.2747 176.668C129.377 206.039 195.141 239.456 256.724 273.359L432.194 181.655C436.878 179.094 442.241 176.986 446.59 173.938C448.968 169.494 450.645 157.482 451.892 151.938L467.174 82.6175C467.874 79.4892 468.466 76.2713 469.334 73.1894C470.963 72.8021 472.948 73.0647 474.409 72.2789C481.924 73.6274 489.168 76.0329 496.761 77.1792C491.946 102.403 485.605 127.467 479.776 152.477L475.243 172.39C471.511 189.114 476.401 189.53 484.933 206.124C503.584 242.401 512.312 272.824 509.594 314.1C509.161 320.666 507.807 327.122 507.142 333.66C495.441 323.203 484.886 311.215 473.853 300.045L461.609 287.709C458.71 284.841 452.529 279.624 450.688 276.392C445.507 281.076 440.688 286.185 435.759 291.132L415.046 311.779C411.1 315.734 406.854 321.307 402.214 324.297C388.799 309.496 369.36 289.829 354.325 276.392C346.38 282.949 338.494 291.693 331.057 299.004L314.698 315.151C311.405 318.453 307.463 321.916 304.922 325.845C294.057 318.065 276.316 297.766 266.47 287.827C262.783 284.104 259.245 279.708 255.215 276.392C252.177 281.351 247.403 285.78 243.344 289.922L214.548 318.763C212.176 321.103 209.906 323.666 207.392 325.845C191.236 309.487 175.086 291.847 158.16 276.392C147.684 287.307 136.849 297.84 126.255 308.632C122.535 312.421 114.407 321.778 110.645 324.297L84.2355 297.379C77.2863 290.283 70.3899 283.025 62.9944 276.392C48.4411 290.852 33.5553 304.975 19.3309 319.761C15.3522 323.896 10.7389 327.784 7.12775 332.227C4.70287 326.769 4.37847 319.66 3.87797 313.747C0.66466 275.783 9.31968 237.543 28.0569 204.407C31.5612 198.21 35.7068 192.297 38.9603 185.97C31.112 149.546 20.8909 113.496 13.2387 77.1792Z"/>
</svg>

