<?xml version="1.0" encoding="utf-8" ?>
<svg xmlns="http://www.w3.org/2000/svg" xmlns:xlink="http://www.w3.org/1999/xlink" width="1024" height="1024">
	<path transform="scale(2 2)" fill="#ffffffbb" d="M316.111 205.451C319.001 207.89 321.593 210.705 324.282 213.362L335.092 223.989C345.298 234.179 355.558 244.294 365.598 254.649C360.619 259.263 356.025 264.303 351.257 269.133L328.701 291.71C325.713 294.706 319.187 301.966 316.111 304.108C312.649 301.836 308.619 297.028 305.609 294.001L286.935 275.313C283.357 271.758 279.867 268.019 276.022 264.754L168.705 264.756C152.396 264.756 136.057 264.544 119.75 264.754L119.75 293.009C101.156 293.391 82.4781 293.014 63.875 293.009L2.03805 293.009L2.03805 217.878L119.75 217.878L119.75 245.319L276.022 245.319C277.888 243.06 280.09 241.035 282.16 238.962L294.57 226.769C301.773 219.683 308.6 212.217 316.111 205.451ZM316.111 233.159L303.329 246.07C300.398 249.019 297.543 251.959 294.366 254.649C296.954 257.632 314.07 275.946 316.111 276.265C323.044 269.88 331.467 261.535 337.759 254.649C332.527 248.751 321.868 237.761 316.111 233.159Z"/>
	<path transform="scale(2 2)"  fill="#ffffffbb" d="M159.834 42.9307L209 42.9307L209 72.5008L286.484 72.4987C299.375 72.499 312.37 72.8529 325.25 72.5008C325.744 80.9973 325.26 89.7283 325.257 98.2535L325.25 151.532C331.489 151.323 337.798 151.528 344.045 151.529L432.098 151.532C440.551 151.531 449.026 151.378 457.476 151.532L457.475 195.554C457.472 202.991 457.269 210.444 457.476 217.878C475.268 217.788 493.142 217.588 510.928 217.878L510.928 293.009C505.861 293.451 499.2 293.019 493.941 293.017L457.476 293.009L457.476 359.206L384.83 359.206C365.186 359.207 345.513 358.975 325.873 359.206C325.411 369.438 325.672 381.222 325.873 391.5L376.376 391.5C376.103 399.863 376.367 408.331 376.37 416.704L376.376 466.988L255.303 466.988C255.732 458.622 255.307 449.225 255.303 440.734L156.099 440.726C151.044 440.696 146.057 440.491 141 440.734C141.241 437.584 141.038 434.33 141.025 431.169L141 355.017L141 339.25L306.126 339.25C305.717 336.09 305.815 326.144 306.126 322.962L325.873 322.962C326.074 328.367 325.89 333.839 325.873 339.25C338.349 339.564 350.919 339.255 363.403 339.255L438.1 339.25L438.037 299.619C438.029 297.431 437.832 295.184 438.1 293.009L385.509 293.009C385.812 284.758 385.517 276.373 385.515 268.11L385.509 217.878L438.1 217.878C438.275 212.716 438.103 207.493 438.102 202.325L438.1 171.389C430.569 171.696 422.9 171.393 415.356 171.392L184.449 171.387C176.728 171.386 168.967 171.199 161.251 171.389C161.075 187.047 161.566 202.724 161.251 218.377C154.917 218.388 148.584 218.212 142.251 218.377L142.251 171.389L91.2401 171.389L91.2401 151.532C96.6241 151.958 102.304 151.544 107.728 151.541L142.251 151.532C141.833 141.213 141.689 126.692 142.251 116.383C125.28 116.574 108.189 115.784 91.2401 116.383L91.2401 42.9307L159.834 42.9307ZM209 91.7339L209 116.383L161.251 116.383L161.251 151.532L258.913 151.532L306.126 151.532L306.126 91.7339C301.406 91.5746 296.655 91.7326 291.93 91.7339L264.197 91.7344C245.82 91.7325 227.37 91.3831 209 91.7339ZM161.251 359.206L161.234 413.627C161.227 415.88 161.043 418.262 161.251 420.501L224.136 420.495C234.478 420.494 244.978 420.116 255.303 420.501L255.287 401.605C255.278 398.254 255.133 394.843 255.303 391.5C258.195 391.723 261.143 391.553 264.045 391.522L276.022 391.5L306.126 391.5C305.731 388.87 305.74 361.184 306.126 359.206L175.772 359.202C171.012 359.198 165.969 358.775 161.251 359.206Z"/>
</svg>
