<?xml version="1.0" encoding="utf-8" ?>
<svg xmlns="http://www.w3.org/2000/svg" xmlns:xlink="http://www.w3.org/1999/xlink" width="1024" height="1024">
	<path transform="scale(2 2)" d="M257.572 98.5465C254.804 98.9174 252.42 98.4235 251.039 95.7138C250.058 93.7882 249.993 71.4242 250.841 68.9506C251.431 67.2293 253.099 66.4719 254.619 65.7543C256.978 65.5575 259.326 66.4126 260.503 68.6096C261.465 70.4077 264.243 95.3266 257.572 98.5465Z"/>
	<path transform="scale(2 2)" d="M324.076 116.225C320.669 115.951 317.102 113.114 318.651 109.316C320.633 104.458 329.37 86.4887 335.112 85.7721C345.943 84.9827 337.61 97.2443 335.498 100.863C332.721 105.62 329.631 114.651 324.076 116.225Z"/>
	<path transform="scale(2 2)" d="M189.41 116.225C182.33 116.595 174.026 99.3135 171.196 93.5698C169.466 90.0576 171.263 87.2804 174.572 85.7721C181.464 85.2461 189.881 102.666 192.505 108.026C194.381 111.859 193.356 114.584 189.41 116.225Z"/>
	<path transform="scale(2 2)" d="M212.111 372.679L209.747 370.409C202.642 363.501 204.122 358.583 202.778 349.344C200.41 333.076 193.257 316.779 183.056 303.903C163.389 279.081 150.878 260.526 150.455 226.474C149.74 169.012 198.511 121.181 255.499 120.684C264.148 120.333 273.264 121.797 281.636 123.944C352.064 142.005 384.673 223.069 344.111 284.588C328.268 308.617 314.783 315.639 309.919 349.467C308.684 358.054 309.549 367.62 300.797 372.679L300.805 398.331C300.816 410.778 301.735 422.578 285.624 424.022C282.278 437.405 271.5 446.768 257.572 447.724C243.551 447.663 229.671 438.609 227.452 424.022C211.046 420.764 212.102 411.328 212.105 396.954L212.111 372.679ZM250.433 131.275C173.024 139.161 133.861 222.943 181.674 285.681C198.605 307.897 208.124 318.786 213.144 348.942C213.818 352.991 213.764 357.362 214.926 361.279C220.439 366.592 244.935 365.979 252.604 365.687C253.736 344.128 246.852 320.611 232.344 304.322C229.911 301.591 224.385 297.391 224.682 293.511C224.98 289.629 229.586 287.901 232.45 290.301C235.538 292.221 237.918 295.04 240.234 297.806C257.805 318.787 262.842 339.2 262.787 365.687C268.124 365.673 293.907 364.984 296.76 362.308C298.994 360.212 298.736 355.209 298.995 352.443C300.876 332.355 309.206 311.975 321.663 296.201C324.553 292.54 327.837 289.208 330.692 285.515C381.493 219.776 333.127 129.748 251.407 131.25L250.433 131.275ZM222.474 374.918L222.474 388.938C237.855 390.251 252.462 391.218 267.939 390.651C275.423 390.377 282.864 388.98 290.329 388.938C290.955 387.921 290.324 376.691 290.329 374.918C272.287 374.489 255.83 377.055 236.306 375.706C232.045 375.411 227.72 374.805 223.455 374.899L222.474 374.918ZM288.696 399.471C274.502 400.499 260.774 401.649 246.511 401.243C238.485 401.014 230.483 399.966 222.474 399.471C222.437 403.591 220.944 409.78 224.624 412.668C231.873 415.475 287.758 416.745 289.719 411.048C290.25 409.504 292.157 398.881 288.696 399.471ZM237.968 425.352C245.055 436.629 258.948 442.301 269.375 431.883C271.359 430.006 273.202 427.882 274.308 425.352C263.677 424.362 249.074 425.512 237.968 425.352Z"/>
	<path transform="scale(2 2)" d="M139.635 165.927C136.061 166.759 117.863 155.821 114.825 153.592C110.536 150.446 112.437 145.671 116.616 143.775C118.044 143.708 155.834 158.053 139.635 165.927Z"/>
	<path transform="scale(2 2)" d="M373.644 165.927C369.382 165.96 366.43 161.617 368.664 157.667C370.472 154.47 390.197 144.654 393.483 143.775C397.298 144.319 400.458 147.313 398.548 151.3C396.902 154.734 377.874 164.399 373.644 165.927Z"/>
	<path transform="scale(2 2)" d="M244.944 161.735C246.05 160.571 247.049 159.907 248.582 159.406C266.153 159.431 269.428 155.175 269.375 174.949C274.962 176.007 280.639 178.791 285.624 181.492C289.26 178.909 294.704 171.373 299.676 173.509C302.884 174.887 314.499 184.925 313.146 189.184C311.984 192.844 306.303 197.194 304.219 201.398C305.45 206.107 307.943 210.476 309.263 215.22C314.666 216.241 323.671 214.52 324.874 221.504C325.496 225.12 325.488 236.709 323.41 239.402C321.555 241.805 312.443 242.088 309.263 242.423C307.81 247.242 306.132 251.844 304.219 256.501C305.859 258.869 313.427 266.774 312.409 269.785C311.447 272.63 300.974 282.83 298.152 284.097C295.267 285.392 287.275 278.453 284.003 277.17L283.599 277.014C279.244 278.088 274.985 280.245 270.71 281.705C270.079 286.117 270.524 296.402 265.066 297.758C245.07 297.723 245.463 302.257 243.515 282.597C237.922 281.79 233.422 279.853 228.6 277.014C222.655 281.806 219.926 289.507 212.64 282.441C202.167 272.285 195.213 268.697 208.993 256.501C206.4 251.983 204.833 247.361 203.26 242.423C199.883 241.494 191.439 241.045 189.218 238.687C187.308 236.659 186.24 219.28 189.496 216.812C192.242 214.731 199.95 214.869 203.26 215.22C203.837 209.461 206.429 204.836 208.993 199.749C204.258 194.185 196.833 189.431 202.732 183.137C214.552 170.526 215.034 169.157 227.452 181.492C232.645 178.45 237.621 176.295 243.515 174.949C243.807 170.824 243.609 165.622 244.944 161.735ZM253.533 169.842C253.087 174.256 253.191 178.749 252.604 183.141C246.098 185.964 241.508 184.656 233.4 189.631C224.144 195.31 225.354 191.734 216.089 184.45C214.739 185.829 213.363 187.191 212.111 188.661C224.854 200.671 221.106 197.651 215.565 209.483C213.568 213.75 212.947 218.652 210.835 222.765C206.886 224.976 202.496 224.48 198.183 225.276C198.047 227.37 198.063 229.42 198.183 231.515C211.476 231.436 210.531 232.127 213.117 241.651C217.216 256.743 227.128 252.89 212.111 268.259C214.376 269.714 215.932 271.294 217.675 273.339C231.155 260.923 225.659 264.933 238.627 270.813C252.879 277.276 253.571 266.443 253.533 287.62L260.223 287.62L260.223 284.559C260.865 280.835 260.939 277.032 261.715 273.339C273.398 272.369 280.908 264.773 284.902 264.222C287.066 263.923 294.689 271.808 296.139 273.339C297.598 271.477 299.036 269.84 300.797 268.259C292.705 258.772 289.748 260.466 295.117 251.403C298.388 245.88 299.763 239.429 300.797 233.173C305.479 232.294 310.344 232.153 315.072 231.515L315.072 226.371C312.662 226.019 302.511 225.459 301.181 224.44C298.982 220.646 299.259 213.32 294.748 206.245C288.698 196.758 294.075 197.464 301.9 188.661C300.526 187.216 299.164 185.776 297.672 184.45C294.777 186.793 288.797 192.506 285.624 193.614C279.222 190.677 275.177 186.909 267.852 184.901C256.74 181.856 260.917 183.377 259.313 169.842C257.381 169.797 255.463 169.767 253.533 169.842Z"/>
	<path transform="scale(2 2)" d="M259.313 264.753C237.635 265.186 219.7 250.033 220.454 227.609C221.049 209.929 236.186 192.805 254.619 193.614C261.142 190.62 272.846 196.383 277.854 200.332C303.625 220.655 291.227 261.657 259.313 264.753ZM253.533 203.335C219.271 208.316 225.118 256.967 259.313 254.476C293.269 248.561 285.55 199.943 253.533 203.335Z"/>
	<path transform="scale(2 2)" d="M120.514 233.532C118.325 233.938 94.987 233.967 93.656 233.176C89.126 230.482 90.1127 223.864 96.2022 222.765C100.709 222.757 120.11 221.954 123.021 224.065C126.844 226.836 125.249 233.146 120.514 233.532Z"/>
	<path transform="scale(2 2)" d="M417.14 233.532C412.939 233.57 393.462 234.073 390.826 233.138C386.03 231.437 386.627 224.755 391.815 222.765C397.814 222.486 420.045 220.878 421.542 226.88C422.251 229.723 419.77 232.836 417.14 233.532Z"/>
	<path transform="scale(2 2)" d="M396.088 312.475C393.959 312.994 356.486 298.436 371.792 290.301C374.848 289.809 411.842 304.614 396.088 312.475Z"/>
	<path transform="scale(2 2)" d="M118.816 313.268C114.684 313.324 111.396 308.516 113.937 304.865C115.502 302.615 133.439 291.899 137.675 291.056C140.376 291.059 142.437 292.159 143.3 294.892C145.191 300.884 123.779 311.654 118.816 313.268Z"/>
</svg>
