<?xml version="1.0" encoding="UTF-8" standalone="no"?>
<!-- Created with Inkscape (http://www.inkscape.org/) -->

<svg
   width="240"
   height="240"
   viewBox="0 0 63.50007 63.499962"
   version="1.1"
   id="svg1"
   inkscape:version="1.3 (0e150ed6c4, 2023-07-21)"
   sodipodi:docname="Logo2.svg"
   xmlns:inkscape="http://www.inkscape.org/namespaces/inkscape"
   xmlns:sodipodi="http://sodipodi.sourceforge.net/DTD/sodipodi-0.dtd"
   xmlns="http://www.w3.org/2000/svg"
   xmlns:svg="http://www.w3.org/2000/svg">
  <sodipodi:namedview
     id="namedview1"
     pagecolor="#ffffff"
     bordercolor="#000000"
     borderopacity="0.25"
     inkscape:showpageshadow="2"
     inkscape:pageopacity="0.0"
     inkscape:pagecheckerboard="0"
     inkscape:deskcolor="#d1d1d1"
     inkscape:document-units="mm"
     inkscape:zoom="0.78305976"
     inkscape:cx="396.52146"
     inkscape:cy="561.25985"
     inkscape:window-width="1920"
     inkscape:window-height="1057"
     inkscape:window-x="-8"
     inkscape:window-y="-8"
     inkscape:window-maximized="1"
     inkscape:current-layer="g3" />
  <defs
     id="defs1" />
  <g
     inkscape:label="Layer 1"
     inkscape:groupmode="layer"
     id="layer1">
    <g
       id="g3">
      <path
         id="path2"
         style="fill:none;stroke:#72584e;stroke-width:2.71798;stroke-linecap:round;stroke-linejoin:round;stroke-miterlimit:6.3;stroke-dashoffset:389439;stroke-opacity:0.995601;paint-order:fill markers stroke"
         d="M 60.603098,31.602165 A 28.641035,28.641041 0 0 1 31.962063,60.243205 28.641035,28.641041 0 0 1 3.321028,31.602165 28.641035,28.641041 0 0 1 31.962063,2.961124 28.641035,28.641041 0 0 1 60.603098,31.602165 Z" />
      <g
         id="text2"
         style="font-weight:bold;font-size:12.7px;line-height:0.9;font-family:Candara;-inkscape-font-specification:'Candara Bold';text-align:center;letter-spacing:0.722313px;word-spacing:-0.36248px;text-anchor:middle;fill:#72584e;stroke-width:2.71801;stroke-linecap:round;stroke-linejoin:round;stroke-miterlimit:6.3;stroke-dashoffset:389439;stroke-opacity:0.995601;paint-order:fill markers stroke"
         aria-label="Melior&#10;Apparel"
         transform="translate(1.0136515,1.3515375)">
        <path
           style="stroke-width:2.718"
           d="m 21.377272,27.527693 h -1.804541 q 0,-1.054199 -0.130225,-3.553272 -0.130225,-2.505273 -0.136426,-3.12539 h -0.09302 q -0.06201,0.37207 -0.328662,1.37666 -0.266651,1.00459 -1.00459,2.96416 -0.731739,1.953369 -0.731739,2.337842 H 15.77761 q 0,-0.396875 -0.706933,-2.362647 -0.700733,-1.965771 -0.917774,-2.75332 -0.217041,-0.787549 -0.347265,-1.562695 h -0.09302 q -0.0062,0.775146 -0.155029,3.323828 -0.142627,2.548681 -0.142627,3.354834 h -1.637109 q 0,-0.186035 0.446484,-3.726904 0.452686,-3.54087 0.452686,-4.347022 h 2.399853 q 0,0.694531 0.756543,3.063379 0.762744,2.368848 0.762744,3.032373 h 0.09302 q 0,-0.669727 0.861963,-3.038574 0.868164,-2.368848 0.868164,-3.057178 h 2.38125 q 0,1.283643 0.285254,4.582666 0.291455,3.292822 0.291455,3.49126 z m 7.556003,-3.578076 q 0,0.316259 -0.03721,0.824756 l -3.993554,0.06821 q 0.08682,0.700733 0.601513,1.165821 0.514698,0.465088 1.351856,0.465088 0.930176,0 1.978174,-0.279053 l -0.124024,1.203027 q -0.855761,0.310059 -2.120801,0.310059 -1.599902,0 -2.455664,-0.89917 -0.84956,-0.89917 -0.84956,-2.164209 0,-1.32085 0.806152,-2.288232 0.812354,-0.973584 2.251026,-0.973584 1.314648,0 1.953369,0.713134 0.63872,0.713135 0.63872,1.854151 z m -1.451074,-0.05581 q 0,-1.426269 -1.215429,-1.426269 -1.15962,0 -1.376661,1.475879 z m 5.143748,3.633887 h -1.69292 q 0.09302,-2.127002 0.09302,-4.607471 0,-2.418457 -0.192236,-4.111377 l 1.792138,-0.09922 q -0.09302,1.754931 -0.09302,4.210595 0,2.492871 0.09302,4.607471 z m 3.903515,0 h -1.668115 q 0.08682,-1.283643 0.08682,-2.945557 0,-1.649511 -0.21084,-2.889746 l 1.785938,-0.179834 q -0.08062,1.203027 -0.08062,3.06958 0,1.593701 0.08682,2.945557 z m 0.285254,-7.763867 q 0,0.421679 -0.291455,0.737939 -0.285254,0.31626 -0.799951,0.31626 -0.434082,0 -0.682129,-0.272852 -0.241846,-0.272851 -0.241846,-0.657324 0,-0.42168 0.285254,-0.731738 0.291455,-0.310059 0.812353,-0.310059 0.440284,0 0.675928,0.272852 0.241846,0.26665 0.241846,0.644922 z m 7.816453,4.681884 q 0,1.562696 -0.961181,2.443262 -0.961182,0.880566 -2.263428,0.880566 -1.240234,0 -2.127002,-0.799951 -0.886767,-0.806152 -0.886767,-2.263427 0,-1.568897 0.967382,-2.455664 0.967383,-0.886768 2.269629,-0.886768 1.234033,0 2.1146,0.812354 0.886767,0.806152 0.886767,2.269628 z m -1.618505,0.186036 q 0,-0.89917 -0.42168,-1.506885 -0.42168,-0.613916 -1.097608,-0.613916 -0.657324,0 -1.072802,0.570508 -0.409278,0.570507 -0.409278,1.426269 0,0.89917 0.42168,1.513086 0.42168,0.607715 1.097608,0.607715 0.657324,0 1.066601,-0.570508 0.415479,-0.570508 0.415479,-1.426269 z m 7.549803,-2.995166 -0.359668,1.451074 q -0.458887,-0.186035 -0.930176,-0.186035 -0.911572,0 -1.203027,0.818554 0,2.474268 0.03721,3.80752 h -1.649512 q 0.10542,-1.866553 0.10542,-3.050977 0,-1.475879 -0.310058,-2.796728 l 1.581299,-0.173633 q 0.105419,0.682129 0.105419,0.799951 h 0.09922 q 0.570508,-0.874365 1.519287,-0.874365 0.446485,0 1.00459,0.204639 z"
           id="path3" />
        <path
           style="stroke-width:2.718"
           d="m 15.483058,38.957692 h -1.984375 q 0,-0.409277 -0.564307,-2.319238 H 10.069435 Q 9.4865247,38.517409 9.4865247,38.957692 H 7.619972 q 0,-0.241845 1.444873,-3.96875 1.451074,-3.726904 1.451074,-4.105175 h 2.344043 q 0,0.353466 1.308447,4.049365 1.314649,3.689697 1.314649,4.02456 z M 12.618116,35.45403 q -1.0604,-3.199804 -1.0604,-3.460254 h -0.09922 q 0,0.241846 -1.097607,3.460254 z m 10.327929,0.303858 q 0,1.345654 -0.768946,2.362646 -0.768945,1.016992 -2.102197,1.016992 -0.992187,0 -1.364258,-0.421679 h -0.07441 q 0,1.519287 0.04341,3.075781 H 16.99292 q 0.111621,-1.779736 0.111621,-4.105176 0,-3.001367 -0.322461,-4.576465 l 1.5875,-0.173632 0.09302,0.5333 h 0.09922 q 0.663526,-0.613916 1.804541,-0.613916 1.190625,0 1.885156,0.861963 0.694532,0.855762 0.694532,2.040186 z m -1.649512,0.16123 q 0,-0.781347 -0.390674,-1.345654 -0.390674,-0.564307 -1.079004,-0.564307 -0.855762,0 -1.252637,0.502295 0.09302,1.742529 0.09302,3.193604 0.390674,0.303857 1.010791,0.303857 0.824756,0 1.221631,-0.607715 0.396875,-0.613916 0.396875,-1.48208 z m 9.478367,-0.16123 q 0,1.345654 -0.768945,2.362646 -0.768946,1.016992 -2.102197,1.016992 -0.992188,0 -1.364258,-0.421679 h -0.07441 q 0,1.519287 0.04341,3.075781 h -1.686719 q 0.111621,-1.779736 0.111621,-4.105176 0,-3.001367 -0.322461,-4.576465 l 1.5875,-0.173632 0.09302,0.5333 h 0.09922 q 0.663525,-0.613916 1.804541,-0.613916 1.190625,0 1.885156,0.861963 0.694531,0.855762 0.694531,2.040186 z m -1.649512,0.16123 q 0,-0.781347 -0.390673,-1.345654 -0.390674,-0.564307 -1.079004,-0.564307 -0.855762,0 -1.252637,0.502295 0.09302,1.742529 0.09302,3.193604 0.390673,0.303857 1.010791,0.303857 0.824755,0 1.22163,-0.607715 0.396875,-0.613916 0.396875,-1.48208 z m 8.541993,3.032373 -1.463477,0.04961 q -0.09922,-0.26045 -0.09922,-0.47129 h -0.08062 q -0.682129,0.582911 -1.841748,0.582911 -0.775146,0 -1.289844,-0.427881 -0.508496,-0.434082 -0.508496,-1.147217 0,-0.942578 0.79375,-1.544092 0.799951,-0.601513 2.796729,-0.63872 0.0124,-0.111622 0.0124,-0.21084 0,-0.669727 -0.322461,-0.880567 -0.322461,-0.217041 -1.184424,-0.217041 -0.936377,0 -1.829345,0.248047 l 0.136425,-1.141015 q 0.84336,-0.291456 2.38125,-0.291456 1.122412,0 1.730127,0.47129 0.613916,0.471289 0.613916,1.649511 0,0.260449 -0.0248,0.948779 -0.0186,0.688331 -0.0186,0.917774 0,1.283642 0.198438,2.102197 z m -1.655713,-1.289844 q -0.03721,-0.837158 -0.03721,-1.444873 -2.1146,0 -2.1146,1.072803 0,0.73794 0.930176,0.73794 0.731738,0 1.221631,-0.36587 z m 7.661424,-4.595068 -0.359668,1.451074 q -0.458887,-0.186035 -0.930176,-0.186035 -0.911572,0 -1.203027,0.818555 0,2.474267 0.03721,3.807519 h -1.649512 q 0.10542,-1.866552 0.10542,-3.050976 0,-1.475879 -0.310059,-2.796729 l 1.581299,-0.173632 q 0.10542,0.682128 0.10542,0.799951 h 0.09922 q 0.570507,-0.874366 1.519287,-0.874366 0.446484,0 1.00459,0.204639 z m 6.91108,2.313037 q 0,0.31626 -0.03721,0.824756 l -3.993554,0.06821 q 0.08682,0.700732 0.601513,1.16582 0.514698,0.465088 1.351856,0.465088 0.930176,0 1.978174,-0.279053 l -0.124024,1.203028 q -0.855761,0.310058 -2.1208,0.310058 -1.599903,0 -2.455664,-0.89917 -0.849561,-0.89917 -0.849561,-2.164209 0,-1.320849 0.806152,-2.288232 0.812354,-0.973584 2.251026,-0.973584 1.314648,0 1.953369,0.713135 0.63872,0.713135 0.63872,1.85415 z m -1.451074,-0.05581 q 0,-1.42627 -1.215429,-1.42627 -1.159619,0 -1.376661,1.475879 z m 5.143751,3.633886 h -1.69292 q 0.09302,-2.127002 0.09302,-4.60747 0,-2.418457 -0.192237,-4.111377 l 1.792139,-0.09922 q -0.09302,1.754932 -0.09302,4.210596 0,2.492871 0.09302,4.60747 z"
           id="path4" />
      </g>
    </g>
  </g>
</svg>
