<?xml version="1.0" encoding="UTF-8" standalone="no"?>
<!-- Created with Inkscape (http://www.inkscape.org/) -->

<svg
   width="180"
   height="85"
   viewBox="0 0 47.62503 22.489597"
   version="1.1"
   id="svg1"
   inkscape:version="1.3 (0e150ed6c4, 2023-07-21)"
   sodipodi:docname="Melior2.svg"
   xmlns:inkscape="http://www.inkscape.org/namespaces/inkscape"
   xmlns:sodipodi="http://sodipodi.sourceforge.net/DTD/sodipodi-0.dtd"
   xmlns="http://www.w3.org/2000/svg"
   xmlns:svg="http://www.w3.org/2000/svg">
  <sodipodi:namedview
     id="namedview1"
     pagecolor="#ffffff"
     bordercolor="#000000"
     borderopacity="0.25"
     inkscape:showpageshadow="2"
     inkscape:pageopacity="0.0"
     inkscape:pagecheckerboard="0"
     inkscape:deskcolor="#d1d1d1"
     inkscape:document-units="mm"
     inkscape:zoom="0.78305976"
     inkscape:cx="397.15998"
     inkscape:cy="561.25984"
     inkscape:window-width="1920"
     inkscape:window-height="1057"
     inkscape:window-x="-8"
     inkscape:window-y="-8"
     inkscape:window-maximized="1"
     inkscape:current-layer="layer1" />
  <defs
     id="defs1" />
  <g
     inkscape:label="Layer 1"
     inkscape:groupmode="layer"
     id="layer1">
    <g
       id="text1"
       style="font-weight:bold;font-size:10.5833px;line-height:0.7;font-family:Candara;-inkscape-font-specification:'Candara, Bold';text-align:center;letter-spacing:0.677333px;word-spacing:-0.383646px;text-anchor:middle;fill:#72584e;stroke:#000000;stroke-width:0.118;stroke-linecap:round;stroke-linejoin:round;stroke-miterlimit:6.3;stroke-dashoffset:389439;stroke-opacity:0;paint-order:fill markers stroke"
       aria-label="Melior &#10;Apparel"
       transform="translate(-22.583498,-15.21275)">
      <path
         d="m 36.899796,25.246721 h -1.503779 q 0,-0.878496 -0.10852,-2.96105 -0.10852,-2.087721 -0.113688,-2.604484 h -0.07751 q -0.05168,0.310058 -0.273885,1.147213 -0.222208,0.837156 -0.837155,2.470126 -0.60978,1.627802 -0.60978,1.948195 h -1.142046 q 0,-0.330728 -0.589109,-1.968866 -0.583942,-1.638137 -0.764809,-2.294426 -0.180867,-0.656288 -0.289387,-1.302242 h -0.07751 q -0.0052,0.645954 -0.129191,2.769848 -0.118856,2.123895 -0.118856,2.795686 H 28.90031 q 0,-0.155029 0.372069,-3.105743 0.377237,-2.950715 0.377237,-3.622507 h 1.999871 q 0,0.578774 0.630451,2.552808 0.635618,1.974033 0.635618,2.526969 h 0.07751 q 0,-0.558103 0.718301,-2.532137 0.723467,-1.974033 0.723467,-2.54764 h 1.984369 q 0,1.069699 0.237711,3.818876 0.242878,2.74401 0.242878,2.909374 z m 6.372058,-2.98172 q 0,0.263549 -0.03101,0.687294 l -3.327951,0.05684 q 0.07235,0.583942 0.501259,0.971514 0.428913,0.387572 1.126543,0.387572 0.775144,0 1.648473,-0.232543 l -0.103353,1.002519 q -0.713132,0.258381 -1.767328,0.258381 -1.333248,0 -2.04638,-0.749305 -0.707965,-0.749306 -0.707965,-1.803502 0,-1.100705 0.671791,-1.906854 0.67696,-0.811318 1.875849,-0.811318 1.095537,0 1.627802,0.594277 0.532266,0.594277 0.532266,1.545121 z m -1.209225,-0.04651 q 0,-1.188554 -1.012855,-1.188554 -0.966346,0 -1.147213,1.229895 z m 4.361851,3.028229 h -1.410762 q 0.07751,-1.772496 0.07751,-3.839546 0,-2.015375 -0.160196,-3.426137 l 1.493444,-0.08268 q -0.07752,1.462438 -0.07752,3.508819 0,2.077386 0.07752,3.839546 z m 3.328325,0 h -1.390091 q 0.07235,-1.069698 0.07235,-2.454622 0,-1.374589 -0.1757,-2.408115 l 1.488277,-0.149861 q -0.06718,1.00252 -0.06718,2.557976 0,1.32808 0.07235,2.454622 z m 0.237711,-6.469868 q 0,0.351398 -0.242878,0.614947 -0.237711,0.263549 -0.666624,0.263549 -0.361734,0 -0.568439,-0.227375 -0.201537,-0.227376 -0.201537,-0.547769 0,-0.351399 0.23771,-0.60978 0.242879,-0.258381 0.676959,-0.258381 0.366902,0 0.563272,0.227375 0.201537,0.222208 0.201537,0.537434 z m 6.589098,3.901558 q 0,1.302242 -0.800982,2.036045 -0.800982,0.733803 -1.886184,0.733803 -1.033525,0 -1.772496,-0.666624 -0.738971,-0.671792 -0.738971,-1.886184 0,-1.307409 0.80615,-2.04638 0.80615,-0.738971 1.891352,-0.738971 1.028357,0 1.76216,0.676959 0.738971,0.671792 0.738971,1.891352 z m -1.348751,0.155029 q 0,-0.749306 -0.351398,-1.255734 -0.351399,-0.511595 -0.91467,-0.511595 -0.547769,0 -0.894,0.475422 -0.341063,0.475422 -0.341063,1.188554 0,0.749306 0.351399,1.260901 0.351398,0.506427 0.91467,0.506427 0.547768,0 0.888831,-0.475421 0.346231,-0.475422 0.346231,-1.188554 z m 6.36689,-2.495964 -0.299722,1.209224 q -0.382404,-0.155028 -0.775144,-0.155028 -0.759641,0 -1.00252,0.682126 0,2.061884 0.03101,3.172923 h -1.374589 q 0.08785,-1.555455 0.08785,-2.542472 0,-1.229895 -0.258381,-2.3306 l 1.317745,-0.144693 q 0.08785,0.568439 0.08785,0.666624 h 0.08268 q 0.475422,-0.728636 1.266069,-0.728636 0.372069,0 0.837155,0.170532 z"
         id="path3" />
      <path
         d="m 33.282024,32.655031 h -1.653641 q 0,-0.341063 -0.470254,-1.932693 h -2.387444 q -0.485756,1.565791 -0.485756,1.932693 h -1.555456 q 0,-0.201538 1.204057,-3.307281 1.209225,-3.105744 1.209225,-3.420969 h 1.953363 q 0,0.294555 1.090369,3.37446 1.095537,3.074738 1.095537,3.35379 z M 30.89458,29.735322 q -0.883664,-2.666496 -0.883664,-2.883536 h -0.08268 q 0,0.201537 -0.91467,2.883536 z m 8.681987,0.253213 q 0,1.121375 -0.640786,1.968866 -0.640786,0.847491 -1.751826,0.847491 -0.82682,0 -1.136878,-0.351399 h -0.06201 q 0,1.266069 0.03617,2.563143 h -1.405594 q 0.09302,-1.483109 0.09302,-3.420969 0,-2.501131 -0.268716,-3.813708 l 1.322912,-0.144694 0.07751,0.444416 h 0.08268 q 0.552937,-0.511595 1.50378,-0.511595 0.992184,0 1.570958,0.7183 0.578775,0.713133 0.578775,1.700149 z m -1.374589,0.134359 q 0,-0.651121 -0.325561,-1.121375 -0.32556,-0.470254 -0.899167,-0.470254 -0.713132,0 -1.04386,0.418577 0.07751,1.452104 0.07751,2.661328 0.325561,0.253214 0.842323,0.253214 0.687295,0 1.018023,-0.506427 0.330728,-0.511595 0.330728,-1.235063 z M 46.176,29.988535 q 0,1.121375 -0.640786,1.968866 -0.640785,0.847491 -1.751825,0.847491 -0.82682,0 -1.136878,-0.351399 h -0.06201 q 0,1.266069 0.03617,2.563143 h -1.405595 q 0.09302,-1.483109 0.09302,-3.420969 0,-2.501131 -0.268717,-3.813708 l 1.322912,-0.144694 0.07751,0.444416 h 0.08268 q 0.552936,-0.511595 1.503779,-0.511595 0.992185,0 1.570959,0.7183 0.578774,0.713133 0.578774,1.700149 z m -1.374589,0.134359 q 0,-0.651121 -0.32556,-1.121375 -0.325561,-0.470254 -0.899167,-0.470254 -0.713133,0 -1.043861,0.418577 0.07751,1.452104 0.07751,2.661328 0.32556,0.253214 0.842323,0.253214 0.687294,0 1.018022,-0.506427 0.330728,-0.511595 0.330728,-1.235063 z m 7.193709,2.526969 -1.21956,0.04134 q -0.08268,-0.21704 -0.08268,-0.392739 H 50.6257 q -0.568439,0.485757 -1.534785,0.485757 -0.645953,0 -1.074866,-0.356567 -0.423746,-0.361734 -0.423746,-0.956011 0,-0.785479 0.661457,-1.286739 0.666623,-0.50126 2.330599,-0.532265 0.01033,-0.09302 0.01033,-0.1757 0,-0.558103 -0.268716,-0.733803 -0.268717,-0.180867 -0.987017,-0.180867 -0.780311,0 -1.52445,0.206706 l 0.113688,-0.950844 q 0.702797,-0.242878 1.984369,-0.242878 0.93534,0 1.441768,0.392739 0.511595,0.39274 0.511595,1.374589 0,0.21704 -0.02067,0.790647 -0.0155,0.573607 -0.0155,0.764809 0,1.069699 0.165364,1.751826 z m -1.379756,-1.074866 q -0.03101,-0.69763 -0.03101,-1.204057 -1.76216,0 -1.76216,0.893999 0,0.614948 0.775144,0.614948 0.609779,0 1.018022,-0.30489 z m 6.459909,-3.829212 -0.299722,1.209225 q -0.382405,-0.155029 -0.775145,-0.155029 -0.759641,0 -1.002519,0.682127 0,2.061883 0.03101,3.172923 h -1.374589 q 0.08785,-1.555456 0.08785,-2.542472 0,-1.229896 -0.258382,-2.3306 l 1.317745,-0.144694 q 0.08785,0.568439 0.08785,0.666624 h 0.08268 q 0.475421,-0.728635 1.266068,-0.728635 0.372069,0 0.837156,0.170531 z m 5.834625,1.927525 q 0,0.263549 -0.03101,0.687295 l -3.327952,0.05684 q 0.07235,0.583942 0.50126,0.971514 0.428913,0.387572 1.126543,0.387572 0.775144,0 1.648473,-0.232543 l -0.103353,1.00252 q -0.713132,0.258381 -1.767328,0.258381 -1.333248,0 -2.04638,-0.749306 -0.707965,-0.749306 -0.707965,-1.803502 0,-1.100704 0.671791,-1.906854 0.676959,-0.811317 1.875849,-0.811317 1.095537,0 1.627802,0.594277 0.532266,0.594277 0.532266,1.54512 z M 61.700673,29.6268 q 0,-1.188555 -1.012855,-1.188555 -0.966346,0 -1.147213,1.229896 z m 4.361851,3.028229 h -1.410762 q 0.07751,-1.772496 0.07751,-3.839547 0,-2.015374 -0.160196,-3.426136 l 1.493444,-0.08268 q -0.07751,1.462438 -0.07751,3.508818 0,2.077386 0.07751,3.839547 z"
         id="path4" />
    </g>
  </g>
</svg>
