<?xml version="1.0" encoding="utf-8" ?>
<svg xmlns="http://www.w3.org/2000/svg" xmlns:xlink="http://www.w3.org/1999/xlink" width="1024" height="1024">
	<path transform="scale(2 2)" fill="#ffffffbb" d="M239.773 60.6104C264.108 60.2438 284.18 78.9183 284.772 103.514C285.348 127.473 265.745 147.549 241.846 148.048C203.333 147.576 182.668 103.811 208.001 75.2045C216.153 65.9987 227.656 61.3305 239.773 60.6104Z"/>
	<path transform="scale(2 2)" fill="#ffffffbb" d="M207.412 140.831C208.748 140.496 230.574 161.269 257.536 150.44C261.604 148.806 265.347 146.505 269.113 144.286C280.411 161.003 291.175 178.158 301.97 195.205L310.222 208.368C317.48 220.099 316.401 218.543 328.032 226.103C332.514 229.017 368.305 252.005 368.782 252.925C368.403 255.584 365.763 258.505 364.431 260.871C387.07 273.823 384.811 275.33 384.788 301.83L384.792 435.483C384.796 440.078 384.983 444.716 384.789 449.305C380.032 449.389 375.27 449.179 370.511 449.305L370.516 301.731C370.514 282.268 374.383 281.746 356.941 272.867C354.937 275.261 353.285 278.019 351.061 280.207C336.874 270.518 322.192 261.492 307.817 252.08C295.221 243.833 297.059 246.74 288.315 234.327C284.583 229.03 280.789 223.755 276.777 218.665C274.834 237.435 267.603 260.441 271.223 278.228L274.31 293.334C275.833 300.815 277.079 308.345 278.5 315.846L284.652 347.767C287.925 365.414 289.449 365.814 287.818 383.902L285.772 407.386C285.349 412.401 284.762 417.407 284.75 422.444C282.994 427.746 282.675 443.802 281.94 450.164L254.022 450.161C249.286 450.153 244.5 449.915 239.773 450.164C239.413 444.169 240.382 437.681 240.752 431.656L243.182 393.197C243.615 386.712 244.479 380.123 244.495 373.634C244.517 364.327 226.663 303.055 221.49 291.873C221.595 298.123 220.885 304.546 220.568 310.798L214.07 450.164C209.353 450.419 204.49 450.175 199.759 450.174L170.492 450.164C169.682 442.388 170.64 434.142 170.931 426.321L178.637 225.936C179.079 215.659 179.61 205.36 179.49 195.072C163.519 213.894 163.548 228.821 161.085 251.546C159.884 262.624 158.593 273.634 157.937 284.766L125.281 284.766C128.44 264.393 128.808 243.568 131.776 223.534C137.764 183.12 168.235 150.751 207.412 140.831Z"/>
</svg>
