<?xml version="1.0" encoding="utf-8" ?>
<svg xmlns="http://www.w3.org/2000/svg" xmlns:xlink="http://www.w3.org/1999/xlink" width="1024" height="1024">
	<path transform="scale(2 2)" d="M255.889 277.418C242.231 272.489 215.552 251.512 205.281 242.096C175.999 215.252 142.159 171.987 176.186 135.521C185.664 125.362 198.173 120.133 211.917 119.627C228.245 118.875 245.515 126.543 255.889 139.128C263.076 132.665 269.981 126.867 279.074 123.178C305.224 112.571 336.593 125.744 346.977 152.039C360.755 186.927 328.914 222.046 304.909 243.278C301.894 245.944 298.469 249.671 294.72 251.125C289.252 257.909 264.634 273.936 255.889 277.418ZM210.187 130.266C189.339 132.397 170.415 151.37 172.6 173.077C175.919 206.05 225.536 250.38 255.889 265.604C268.929 259.041 284.58 247.134 295.395 237.684C312.916 222.415 337.905 196.359 339.529 172.113C340.988 150.331 322.336 131.323 300.955 130.288C274.041 128.985 263.652 151.609 256.196 151.498C248.284 151.382 238.827 128.696 210.187 130.266Z"/>
	<path transform="scale(2 2)" d="M399.332 252.388L399.332 252.388L399.332 252.388C400.885 250.644 404.456 243.53 405.835 241.104C403.596 220.52 399.905 200.319 397.953 179.459C395.963 158.194 421.97 152 428.099 169.984C429.98 175.503 430.632 183.127 431.959 189.078C434.816 201.882 443.021 230.346 443.752 242.065C444.46 253.424 436.37 270.395 431.808 281.34L424.168 299.502C414.781 321.734 403.944 339.144 380.526 349.684C368.032 355.308 362.526 356.451 352.927 367.232C349.021 371.962 346.138 376.829 344.114 382.623C347.589 386.919 346.741 390.744 341.442 392.392C337.641 391.514 333.949 390.001 330.291 388.662L271.906 367.647C258.039 362.721 267.223 354.289 273.457 357.564L273.836 357.765C281.715 344.669 283.394 339.43 284.103 324.886C285.316 300.003 299.877 276.613 322.399 265.426C334.815 259.258 332.536 262.443 343.462 253.026C354.675 243.362 388.041 209.625 400.268 234.439C403.288 240.569 401.355 246.357 399.332 252.388ZM396.939 256.648C390.665 262.183 381.837 269.547 376.967 276.292C381.038 276.043 384.673 275.746 387.555 272.472C389.436 270.336 396.269 259.217 396.939 256.648L396.939 256.648L396.939 256.648ZM412.793 170.249C405.151 174.492 409.954 187.696 410.788 195.127C412.553 210.864 414.244 226.518 416.838 242.157C414.877 247.663 409.821 255.168 406.825 260.48C402.292 268.516 398.284 279.885 389.434 284.221C378.839 289.414 366.997 283.903 356.447 295.523C353.986 298.232 351.2 304.524 346.689 303.037C336.431 299.656 351.112 284.719 355.485 282.439C365.144 277.403 366.371 272.346 373.441 264.606C378.547 259.016 394.102 249.033 390.938 239.852C386.206 226.122 356.739 255.591 351.663 260.173C342.074 268.828 344.747 267.589 333.003 272.487C322.184 276.998 310.345 284.959 304.83 295.626C298.721 303.123 295.557 314.071 294.918 323.605C293.76 340.871 293.339 345.081 283.981 360.944C299.035 365.21 320.154 373.098 334.49 379.003C350.058 340.661 370.161 349.549 393.171 328.611C409.019 314.19 418.511 286.042 426.746 265.677C435.264 244.614 434.136 245.383 429.262 225.002C425.869 210.811 422.037 196.55 419.755 182.126C419.034 177.572 419.34 169.821 412.793 170.249ZM399.332 252.388L399.332 252.388L399.332 252.388Z"/>
	<path transform="scale(2 2)" d="M106.162 239.617C107.592 242.942 109.513 246.467 111.499 249.499L111.499 249.499L111.499 249.499C106.959 234.706 118.201 220.148 133.379 225.789C137.051 227.153 145.382 234.595 148.957 237.419L172.284 255.834C179.434 261.455 178.9 260.711 186.866 264.206C207.48 273.252 224.426 295.612 227.163 317.746C227.891 323.629 227.043 329.83 228.354 335.594C230.058 343.09 233.941 349.851 237.157 356.762C241.965 356.31 247.885 359.283 245.383 364.381C243.554 368.107 237.75 368.929 234.204 370.152L217.1 376.06C210.24 378.43 172.893 393.741 168.063 391.037C164.887 389.259 164.973 385.451 166.562 382.623C165.611 375.417 162.569 371.088 157.589 365.901C149.671 358.06 140.087 353.815 130.387 348.727C96.0647 330.726 86.3127 298.421 73.2854 264.452C66.9328 247.887 66.482 245.23 71.0588 227.735C75.6788 210.075 79.5404 192.292 82.3845 174.247C85.6787 153.348 111.851 156.106 114.049 175.806C115.517 188.961 108.688 226.359 106.162 239.617ZM113.147 252.388L113.147 252.388C114.069 255.419 118.613 263.152 120.393 266.263C124.604 273.624 126.781 274.149 134.691 276.292C131.826 270.599 117.958 257.652 113.147 252.388L113.147 252.388ZM97.0877 170.249C91.2492 173.362 92.2062 180.659 91.2618 186.494C89.0409 200.215 85.9769 213.915 82.3739 227.337C79.9918 236.211 76.9826 242.018 79.7081 251.221C82.0442 259.109 85.6781 266.838 88.7761 274.464C98.715 298.928 105.367 320.272 128.759 335.376C147.857 347.708 170.399 351.842 176.757 379.003C193.75 373.173 210.866 367.356 227.638 360.944C218.935 343.957 217.536 341.142 216.867 322.705C216.521 313.155 212.494 303.425 207.13 295.626C200.331 286.374 191.946 278.301 181.406 273.444C178.348 272.035 174.902 271.199 172.121 269.271C165.088 264.397 132.138 236 127.617 235.259C124.465 234.742 121.399 238.535 121.055 241.33C120.28 247.618 138.482 263.821 143.044 268.668C146.195 272.015 149.045 275.87 152.377 278.997C157.504 283.808 169.301 287.785 168.483 297.836C168.246 300.754 164.827 302.26 162.225 301.835C159.103 301.325 157.592 296.659 155.677 294.506C144.839 282.322 124.114 291.235 113.617 275.436C108.639 267.943 98.9435 250.52 95.1133 242.157C97.2819 224.404 100.945 207.625 102.518 189.272C103.011 183.524 105.827 171.293 97.0877 170.249ZM112.564 251.125L112.564 251.125L112.564 251.125Z"/>
</svg>
